Coordinates
version=1
nRows=7
nColumns=33
inDegrees=yes

Units are S.I. units (second, meters, Newtons, ...)
Angles are in degrees.

endheader
time	ground_thorax_rot_x	ground_thorax_rot_y	ground_thorax_rot_z	ground_thorax_tx	ground_thorax_ty	ground_thorax_tz	clav_prot_r	clav_elev_r	scapula_abduction_r	scapula_elevation_r	scapula_upward_rot_r	scapula_winging_r	shoulder_elv_r	plane_of_elev_r	axial_rot_r	elbow_flexion_r	pro_sup_r	wrist_flex_r	wrist_dev_r	clav_prot_l	clav_elev_l	scapula_abduction_l	scapula_elevation_l	scapula_upward_rot_l	scapula_winging_l	shoulder_elv_l	plane_of_elev_l	axial_rot_l	elbow_flexion_l	pro_sup_l	wrist_flex_l	wrist_dev_l
      7.17000000	    -41.41083464	     -6.87346301	      6.09400537	   -205.13034420	    882.29792828	     -4.04282331	     10.38240927	    -45.00000000	     35.83630222	    -45.00000000	    -43.65575306	   1699.98623008	  -1188.32478853	    148.48098698	    -97.13161798	   -703.12340065	     56.59671434	     18.71443763	      4.70168203	     14.58706799	     38.11195675	    -37.44718387	    -45.00000000	    -45.00000000	   -994.04120514	  -2807.01390198	     19.12767881	    -46.53202109	    372.10050869	     40.33022991	      7.21395774	    -22.95692893
      7.18000000	    -41.39562820	     -6.32135610	      5.56663886	   -203.32338188	    883.55813568	     -3.98866504	     10.28282768	    -45.00000000	     36.19289163	    -45.00000000	    -42.55913186	   1699.99841775	  -1188.28936133	    148.34305164	    -97.30936104	   -702.90445119	     58.32704445	     18.74370537	      4.62750890	     15.15799505	     38.31145821	    -37.93832839	    -45.00000000	    -45.00000000	   -993.71290067	  -2807.17022357	     19.68874792	    -46.33849516	    372.09392346	     40.97484093	      7.21502908	    -23.01474777
      7.19000000	    -41.32954727	     -6.19138587	      5.42223092	   -201.42781550	    884.89245854	     -3.93789521	     10.24700319	    -45.00000000	     36.58032683	    -45.00000000	    -41.48696326	   1700.03604244	  -1188.14940447	    148.41335272	    -97.28324285	   -702.73169489	     60.15238446	     18.75970104	      4.54060353	     15.35218614	     38.43005970	    -38.16236975	    -45.00000000	    -45.00000000	   -993.53865318	  -2807.12814730	     19.94254613	    -45.86774382	    372.15834181	     41.68082397	      7.04159377	    -22.99671415
      7.20000000	    -41.24186597	     -6.01120069	      5.26125032	   -199.44193786	    886.29399882	     -3.88906275	     10.38897249	    -45.00000000	     36.86953233	    -45.00000000	    -40.70060377	   1699.93707768	  -1188.04308337	    148.22933963	    -97.40587580	   -702.54849837	     61.66173669	     18.69658434	      4.40355415	     15.06987087	     38.28306135	    -38.38012584	    -45.00000000	    -45.00000000	   -993.55921268	  -2806.93773526	     20.07475349	    -45.16959348	    372.31508754	     42.29944064	      6.94254978	    -23.05662511
      7.21000000	    -41.15907408	     -5.84543856	      5.13937997	   -197.36767277	    887.74923951	     -3.83872737	     10.24568365	    -45.00000000	     37.22977328	    -45.00000000	    -39.71461689	   1699.96244785	  -1187.87699921	    148.27679186	    -97.54565564	   -702.41938885	     63.18468863	     18.72471476	      4.33971890	     15.26994585	     38.36131866	    -38.69644711	    -45.00000000	    -45.00000000	   -993.41719651	  -2806.84003865	     20.28984817	    -44.55049719	    372.38972317	     42.95451800	      6.76721757	    -23.04245681
      7.22000000	    -41.06869610	     -5.66319560	      5.02037590	   -195.20255889	    889.24583142	     -3.78153673	     10.32150254	    -45.00000000	     37.49847649	    -45.00000000	    -38.88377992	   1699.88480545	  -1187.73087322	    148.11072492	    -97.71757424	   -702.23357712	     64.51617624	     18.69074164	      4.22086286	     15.05500925	     38.25756505	    -38.91719716	    -45.00000000	    -45.00000000	   -993.43937595	  -2806.62545346	     20.44516869	    -43.81298264	    372.55844111	     43.51640057	      6.63421926	    -23.07969632
      7.23000000	    -40.96124907	     -5.59527898	      4.97686257	   -192.95000183	    890.76460143	     -3.71208850	     10.30670733	    -45.00000000	     37.72833870	    -45.00000000	    -38.05381194	   1699.87430530	  -1187.53155107	    147.99864498	    -97.92743383	   -702.14418344	     65.74074726	     18.66770828	      4.13327086	     14.88566985	     38.18098637	    -39.10988792	    -45.00000000	    -45.00000000	   -993.48188247	  -2806.40448892	     20.53262349	    -43.00529832	    372.70844521	     43.99221645	      6.47251502	    -23.08789769
